<svg xmlns="http://www.w3.org/2000/svg" xmlns:xlink="http://www.w3.org/1999/xlink" width="256" height="256" viewBox="0 0 256 256">
  <defs>
    <style>
      .cls-1 {
        filter: url(#filter);
      }

      .cls-2 {
        fill: #333;
      }

      .cls-2, .cls-4 {
        fill-rule: evenodd;
      }

      .cls-3 {
        filter: url(#filter-2);
      }

      .cls-4 {
        fill: #f5f5f5;
      }
    </style>
    <filter id="filter" filterUnits="userSpaceOnUse">
      <feOffset result="offset" in="SourceAlpha"/>
      <feGaussianBlur result="blur" stdDeviation="4"/>
      <feFlood result="flood" flood-color="#333" flood-opacity="0.65"/>
      <feComposite result="composite" operator="in" in2="blur"/>
      <feBlend result="blend" in="SourceGraphic"/>
    </filter>
    <filter id="filter-2" filterUnits="userSpaceOnUse">
      <feOffset result="offset" in="SourceAlpha"/>
      <feGaussianBlur result="blur" stdDeviation="4"/>
      <feFlood result="flood" flood-color="#f5f5f5"/>
      <feComposite result="composite" operator="in" in2="blur"/>
      <feBlend result="blend" in="SourceGraphic"/>
    </filter>
  </defs>
  <g id="Основная_часть" data-name="Основная часть" class="cls-1">
    <path id="Эллипс_1" data-name="Эллипс 1" class="cls-2" d="M126.44,61.705a99.227,99.227,0,0,1,66.917,26.317,83.138,83.138,0,0,1,19.4,26.16,54.964,54.964,0,0,1,4.322,14.065,44.049,44.049,0,0,1,.547,6.993q-0.006,1.737-.158,3.464t-0.451,3.438a37.018,37.018,0,0,1-11.6,21,33.181,33.181,0,0,1-21.512,8.565c-17.756,1.732-40.362-11.667-69.063-8.626-14.057.651-29.454,6.449-42.778,12.086-13.4,5.718-23.865,11.4-29.346,13.89-0.708.321-1.35,0.588-1.932,0.8-0.145.053-.287,0.1-0.426,0.148s-0.273.088-.4,0.127q-0.394.115-.747,0.187a3.376,3.376,0,0,1-2.287-.174c-1.2-.629-1.908-2.336-2.568-5.305-0.649-2.9-1.272-7.062-1.843-12.113-0.28-2.523-.535-5.265-0.721-8.164q-0.14-2.175-.221-4.46-0.039-1.14-.059-2.3T31.5,155.452c-0.943-52.621,42.978-93.534,94.943-93.747h0Z"/>
    <g id="Уши">
      <path id="Прямоугольник_1_копия" data-name="Прямоугольник 1 копия" class="cls-2" d="M73.459,41.912c-11.326,3.326-25.4,12.761-39.722,22.751a5.249,5.249,0,0,0-1.288,7.312L44.505,89.192c1.744,2.416,4.257,2.618,5.82.462a93.506,93.506,0,0,1,43.325-30.7c3.064-.917,4.241-3.493,2.486-5.88C92.038,47.51,87.62,42.66,81.6,41.364a24.2,24.2,0,0,0-8.144.548h0Z"/>
      <path id="Прямоугольник_1" data-name="Прямоугольник 1" class="cls-2" d="M182.5,41.912c11.326,3.326,25.4,12.761,39.721,22.751a5.248,5.248,0,0,1,1.288,7.312L211.449,89.192c-1.744,2.416-4.257,2.618-5.82.462a93.5,93.5,0,0,0-43.325-30.7c-3.064-.917-4.241-3.493-2.486-5.88,4.1-5.561,8.516-10.411,14.532-11.707a24.2,24.2,0,0,1,8.145.548h0Z"/>
    </g>
    <g id="Глаза" class="cls-3">
      <g id="Группа_3" data-name="Группа 3">
        <path id="Эллипс_2" data-name="Эллипс 2" class="cls-4" d="M157.705,93.15c5.411,0.478,9.141,8.444,8.33,17.792s-5.854,16.541-11.265,16.063-9.141-8.444-8.33-17.793S152.294,92.672,157.705,93.15Z"/>
        <path id="Эллипс_2_копия" data-name="Эллипс 2 копия" class="cls-4" d="M100.878,93.15c-5.411.478-9.141,8.444-8.33,17.792s5.854,16.541,11.266,16.063,9.14-8.444,8.33-17.793S106.289,92.672,100.878,93.15Z"/>
      </g>
    </g>
  </g>
</svg>
